<svg xmlns="http://www.w3.org/2000/svg" viewBox="0 0 640.4 84.9"><path d="M218.2 84.9V0h95.7v33.4l-21.5-.3 21.5 18.4v33.4h-95.7zm55.3-62.4h-15v10.9h15V22.5zm0 28.8h-15v10h15v-10zm53.1 33.6V0h95.6v84.9h-95.6zm202.7-51.5H476V22.5h55.3L531.2 0h-95.6v50.4H491v10.9h-55.3v23.6h95.6V61.3l.1-27.9h-2.1zm109.1 0h-53.3V22.5h55.3L640.3 0h-95.6v50.4H600v10.9h-55.3v23.6h95.6V61.3l.1-27.9h-2zM180 0l-15.6 17.7-7.5 8.5-7.5-8.5L133.8 0h-24.7v84.9h40.3V45l7.5 8.5 7.5-8.5v39.9h40.3V0H180zM55.3 84.9V61.3h-15v23.6H0V0h95.7v84.9H55.3zm0-56.8h-15v17.1h15V28.1z" fill="#fff"/></svg>