<svg xmlns="http://www.w3.org/2000/svg" viewBox="0 0 60.81 86.44"><path d="M33.83 20.68a27.28 27.28 0 0 1 17.52 6.45c1.05.96 2.67.93 3.69-.07l5-5.08a2.59 2.59 0 0 0 .02-3.66c-.05-.05-.1-.09-.15-.14a40.003 40.003 0 0 0-13.47-7.55l1.58-7.47c.29-1.42-.62-2.81-2.05-3.11-.17-.03-.35-.05-.53-.05h-9.76c-1.24 0-2.32.86-2.59 2.08l-1.42 6.64c-13 .64-24 7.06-24 20.22 0 11.39 9.09 16.27 18.7 19.65 9.09 3.38 13.89 4.63 13.89 9.39s-4.8 7.76-11.87 7.76c-6.86.11-13.5-2.49-18.46-7.23-1.03-1-2.67-1-3.7 0L.8 63.81a2.62 2.62 0 0 0-.07 3.7l.07.07c4.42 4.17 9.82 7.15 15.7 8.67l-1.46 6.95c-.3 1.46.64 2.89 2.1 3.19.15.03.31.05.47.05h9.83c1.25.01 2.34-.85 2.61-2.08l1.41-6.66c15.53-1 25-9.31 25-21.56 0-11.26-9.48-16-21-19.9-6.57-2.38-12.25-4-12.25-8.89s5.31-6.67 10.62-6.67Z" fill="#fff"/></svg>