<svg xmlns="http://www.w3.org/2000/svg" viewBox="0 0 60.807 86.44"><path fill="#fff" d="M33.83 20.68a27.28 27.28 0 0 1 17.52 6.45 2.69 2.69 0 0 0 3.69-.07l5-5.08a2.59 2.59 0 0 0-.13-3.8 40.08 40.08 0 0 0-13.47-7.55l1.58-7.47A2.63 2.63 0 0 0 45.44 0h-9.76a2.65 2.65 0 0 0-2.59 2.08l-1.42 6.64c-13 .64-24 7.06-24 20.22 0 11.39 9.09 16.27 18.7 19.65 9.09 3.38 13.89 4.63 13.89 9.39s-4.8 7.76-11.87 7.76a26.13 26.13 0 0 1-18.46-7.23 2.65 2.65 0 0 0-3.7 0L.8 63.81a2.62 2.62 0 0 0 0 3.77 36 36 0 0 0 15.7 8.67l-1.46 6.95a2.7 2.7 0 0 0 2.57 3.24h9.83a2.64 2.64 0 0 0 2.61-2.08l1.41-6.66c15.53-1 25-9.31 25-21.56 0-11.26-9.48-16-21-19.9-6.57-2.38-12.25-4-12.25-8.89s5.31-6.67 10.62-6.67Z"/></svg>