<svg xmlns="http://www.w3.org/2000/svg" viewBox="0 0 32.579 31.775"><path fill="#fff" d="M32.58 16.29c0 7.195-4.664 13.296-11.131 15.455-.827.159-1.12-.348-1.12-.784 0-.534.02-2.29.02-4.468 0-1.52-.521-2.514-1.106-3.017 3.629-.403 7.437-1.78 7.437-8.038 0-1.778-.63-3.232-1.674-4.371.167-.412.726-2.068-.162-4.311 0 0-1.366-.438-4.475 1.67a15.625 15.625 0 0 0-4.079-.548 15.603 15.603 0 0 0-4.078.548c-3.111-2.108-4.48-1.67-4.48-1.67-.885 2.243-.326 3.899-.159 4.31-1.042 1.14-1.677 2.594-1.677 4.372 0 6.242 3.803 7.64 7.42 8.05-.465.408-.886 1.126-1.034 2.179-.928.417-3.287 1.135-4.74-1.354 0 0-.86-1.564-2.496-1.679 0 0-1.59-.02-.112.99 0 0 1.068.502 1.81 2.383 0 0 .955 3.168 5.486 2.184.008 1.36.022 2.384.022 2.77 0 .432-.297.935-1.111.786C4.667 29.592 0 23.487 0 16.29 0 7.293 7.294 0 16.288 0 25.285 0 32.58 7.293 32.58 16.29Z"/></svg>