<svg xmlns="http://www.w3.org/2000/svg" viewBox="0 0 60 29.55"><path d="M19.34 8.1c8.35 0 10.34 6.55 10.34 11.12 0 2.06-.61 9.59-9.09 10.33v-4.64c1.11-.15 4.64-1.21 4.64-5.84 0-6.07-4.97-6.36-5.89-6.36s-5.89.29-5.89 6.36c0 4.62 3.53 5.69 4.64 5.84v4.64C9.61 28.8 9 21.28 9 19.22 9 14.66 10.99 8.1 19.34 8.1ZM4.81 0v23.2c0 2.87 2.54 2.02 2.54 2.02v3.47s-3.49 1.79-6.08-.8C.42 27.04.01 25.68.01 23.94V0h4.8Zm33.33 0v23.2c0 2.87 2.54 2.02 2.54 2.02v3.47l-.04.02c-.41.19-3.62 1.6-6.04-.82-.85-.85-1.26-2.21-1.26-3.95V0h4.81Zm10.64 0v23.2c0 2.87 2.54 2.02 2.54 2.02v3.47l-.04.02c-.41.19-3.62 1.6-6.04-.82-.85-.85-1.26-2.21-1.26-3.95V0h4.81Zm10.63 8.71v20.54h-4.79V8.71h4.79ZM57.01 0C58.66 0 60 1.34 60 2.99s-1.34 2.99-2.99 2.99-2.99-1.34-2.99-2.99S55.36 0 57.01 0Z" fill="#fff"/></svg>