<svg xmlns="http://www.w3.org/2000/svg" viewBox="0 0 80.16 29.63"><path d="M26.38 4c-3.51-.29-6.39 1.16-8.53 4.32C15.71 5.16 12.83 3.71 9.32 4c-2.72.24-4.96 1.26-6.63 3.05C.9 8.95 0 11.5 0 14.61v14.5h3.96V14.24c0-1.84.53-3.42 1.53-4.68s2.32-1.89 4.04-1.89 3.22.58 4.49 1.68c1.24 1.11 1.87 2.5 1.87 4.16v15.61h3.99V13.5c0-1.66.63-3.05 1.87-4.16 1.24-1.11 2.75-1.68 4.49-1.68s3.04.63 4.09 1.92c1.03 1.29 1.58 2.87 1.58 4.66v14.87h3.96v-14.5c0-3.11-.92-5.66-2.75-7.55-1.8-1.79-4.04-2.82-6.76-3.05Zm30.28.26c-3.19 0-5.86 1.08-7.97 3.24-2.11 2.13-3.17 4.87-3.17 8.11v13.47h3.83V15.26c0-1.97.74-3.68 2.19-5.11s3.19-2.16 5.15-2.16 3.64.71 5.1 2.16c1.45 1.42 2.19 3.16 2.19 5.11v13.82h3.83V15.61c0-3.24-1.06-5.95-3.17-8.11-2.14-2.13-4.81-3.24-7.97-3.24Zm23.5 6.84V7.49h-5.68V0h-3.83v21.76c0 5.21 3.12 7.87 9.21 7.87h.29v-3.26h-.29c-3.64 0-5.39-1.68-5.39-5.16V11.13l5.68-.03ZM40.74 2.61c1.39 0 2.51 1.12 2.51 2.5s-1.12 2.5-2.51 2.5-2.51-1.12-2.51-2.5 1.12-2.5 2.51-2.5Zm0 7.18c-.71 0-1.4-.16-2.01-.45v19.77h3.83V9.42c-.55.24-1.16.37-1.82.37ZM26.38 4c-3.51-.29-6.39 1.16-8.53 4.32C15.71 5.16 12.83 3.71 9.32 4c-2.72.24-4.96 1.26-6.63 3.05C.9 8.95 0 11.5 0 14.61v14.5h3.96V14.24c0-1.84.53-3.42 1.53-4.68s2.32-1.89 4.04-1.89 3.22.58 4.49 1.68c1.24 1.11 1.87 2.5 1.87 4.16v15.61h3.99V13.5c0-1.66.63-3.05 1.87-4.16 1.24-1.11 2.75-1.68 4.49-1.68s3.04.63 4.09 1.92c1.03 1.29 1.58 2.87 1.58 4.66v14.87h3.96v-14.5c0-3.11-.92-5.66-2.75-7.55-1.8-1.79-4.04-2.82-6.76-3.05Zm30.28.26c-3.19 0-5.86 1.08-7.97 3.24-2.11 2.13-3.17 4.87-3.17 8.11v13.47h3.83V15.26c0-1.97.74-3.68 2.19-5.11s3.19-2.16 5.15-2.16 3.64.71 5.1 2.16c1.45 1.42 2.19 3.16 2.19 5.11v13.82h3.83V15.61c0-3.24-1.06-5.95-3.17-8.11-2.14-2.13-4.81-3.24-7.97-3.24Zm23.5 6.84V7.49h-5.68V0h-3.83v21.76c0 5.21 3.12 7.87 9.21 7.87h.29v-3.26h-.29c-3.64 0-5.39-1.68-5.39-5.16V11.13l5.68-.03ZM40.74 2.61c1.39 0 2.51 1.12 2.51 2.5s-1.12 2.5-2.51 2.5-2.51-1.12-2.51-2.5 1.12-2.5 2.51-2.5Zm0 7.18c-.71 0-1.4-.16-2.01-.45v19.77h3.83V9.42c-.55.24-1.16.37-1.82.37Z" fill="#fff"/></svg>