<svg xmlns="http://www.w3.org/2000/svg" viewBox="0 0 80.158 29.632"><path fill="#fff" d="M26.376 4c-3.511-.29-6.39 1.158-8.528 4.316C15.71 5.158 12.832 3.71 9.32 4c-2.72.237-4.964 1.263-6.627 3.053C.898 8.947 0 11.5 0 14.605v14.5h3.96V14.237c0-1.842.528-3.421 1.532-4.684s2.323-1.895 4.04-1.895c1.716 0 3.22.579 4.488 1.684 1.24 1.105 1.874 2.5 1.874 4.158v15.605h3.987V13.5c0-1.658.634-3.053 1.875-4.158 1.24-1.105 2.746-1.684 4.488-1.684 1.716 0 3.037.631 4.093 1.92 1.03 1.29 1.584 2.87 1.584 4.659v14.868h3.96v-14.5c0-3.105-.924-5.658-2.746-7.552-1.795-1.79-4.04-2.816-6.759-3.053Zm30.284.263c-3.195 0-5.861 1.08-7.974 3.237-2.112 2.132-3.168 4.868-3.168 8.105V29.08h3.829V15.263c0-1.974.739-3.684 2.191-5.105S54.733 8 56.686 8c1.928 0 3.644.71 5.096 2.158 1.452 1.42 2.192 3.158 2.192 5.105V29.08h3.828V15.605c0-3.237-1.056-5.947-3.168-8.105-2.139-2.132-4.806-3.237-7.974-3.237Zm23.498 6.842V7.5h-5.676V0h-3.829v21.763c0 5.21 3.116 7.869 9.215 7.869h.29v-3.264h-.29c-3.644 0-5.386-1.684-5.386-5.157V11.13l5.676-.026Zm-39.421-8.5a2.504 2.504 0 0 1 2.51 2.498c.002 1.38-1.12 2.5-2.505 2.502s-2.51-1.116-2.51-2.497a2.504 2.504 0 0 1 2.505-2.503Zm.002 7.184c-.713 0-1.4-.157-2.006-.447v19.763h3.828V9.421a4.595 4.595 0 0 1-1.822.368ZM26.376 4c-3.511-.29-6.39 1.158-8.528 4.316C15.71 5.158 12.832 3.71 9.32 4c-2.72.237-4.964 1.263-6.627 3.053C.898 8.947 0 11.5 0 14.605v14.5h3.96V14.237c0-1.842.528-3.421 1.532-4.684s2.323-1.895 4.04-1.895c1.716 0 3.22.579 4.488 1.684 1.24 1.105 1.874 2.5 1.874 4.158v15.605h3.987V13.5c0-1.658.634-3.053 1.875-4.158 1.24-1.105 2.746-1.684 4.488-1.684 1.716 0 3.037.631 4.093 1.92 1.03 1.29 1.584 2.87 1.584 4.659v14.868h3.96v-14.5c0-3.105-.924-5.658-2.746-7.552-1.795-1.79-4.04-2.816-6.759-3.053Zm30.284.263c-3.195 0-5.861 1.08-7.974 3.237-2.112 2.132-3.168 4.868-3.168 8.105V29.08h3.829V15.263c0-1.974.739-3.684 2.191-5.105S54.733 8 56.686 8c1.928 0 3.644.71 5.096 2.158 1.452 1.42 2.192 3.158 2.192 5.105V29.08h3.828V15.605c0-3.237-1.056-5.947-3.168-8.105-2.139-2.132-4.806-3.237-7.974-3.237Zm23.498 6.842V7.5h-5.676V0h-3.829v21.763c0 5.21 3.116 7.869 9.215 7.869h.29v-3.264h-.29c-3.644 0-5.386-1.684-5.386-5.157V11.13l5.676-.026Zm-39.421-8.5a2.504 2.504 0 0 1 2.51 2.498c.002 1.38-1.12 2.5-2.505 2.502s-2.51-1.116-2.51-2.497a2.504 2.504 0 0 1 2.505-2.503Zm.002 7.184c-.713 0-1.4-.157-2.006-.447v19.763h3.828V9.421a4.595 4.595 0 0 1-1.822.368Z"/></svg>