<svg xmlns="http://www.w3.org/2000/svg" viewBox="0 0 42.419 33.602"><path fill="#fff" fill-rule="evenodd" d="M.012 13.408a7.464 7.464 0 0 1 2.183-5.7l4.81-4.807A9.91 9.91 0 0 1 10.362.697 5.732 5.732 0 0 1 13.1 0h16.217c.966 0 1.907.244 2.74.697a9.91 9.91 0 0 1 3.356 2.204l4.81 4.806a7.464 7.464 0 0 1 2.184 5.7 7.464 7.464 0 0 1-2.184 5.701L28.626 30.7a9.89 9.89 0 0 1-7.416 2.893 9.89 9.89 0 0 1-7.416-2.893l-11.6-11.59a7.464 7.464 0 0 1-2.182-5.701v-.001ZM13.1 4.99h15.306a4.92 4.92 0 0 1 3.477 1.44l4.81 4.806c.974.973.976 2.552.003 3.527l-.003.003a2.498 2.498 0 0 1-3.531 0l-3.348-3.346a4.92 4.92 0 0 0-3.477-1.439h-3.913a.46.46 0 0 0-.326.786l5.82 5.817a4.911 4.911 0 0 1 .003 6.945l-.003.004-3.64 3.637a4.92 4.92 0 0 1-6.953 0l-11.6-11.59a2.494 2.494 0 0 1 0-3.53 2.499 2.499 0 0 1 3.532 0l9.779 9.773a2.498 2.498 0 0 0 3.53 0 2.494 2.494 0 0 0 0-3.53l-9.994-9.987a2.185 2.185 0 0 1 .003-3.095.735.735 0 0 1 .525-.22V4.99Z"/></svg>