<svg xmlns="http://www.w3.org/2000/svg" viewBox="0 0 44.12 27.74"><path d="m18.49.13 17.75 6.46c.07.03.14.05.21.09.16.05.32.1.48.16 5.65 2.06 8.59 8.26 6.56 13.84-2.03 5.59-8.27 8.45-13.92 6.39l-18.43-6.71c-1.13-.41-1.72-1.65-1.31-2.77a2.164 2.164 0 0 1 2.78-1.28l10.24 3.73c-.48-1.53-.6-3.14-.37-4.72L1.44 7.68C.31 7.27-.28 6.03.13 4.91a2.164 2.164 0 0 1 2.78-1.28l21.02 7.65c.84-1.36 1.97-2.51 3.32-3.38L17.01 4.17c-1.13-.41-1.72-1.65-1.31-2.77A2.164 2.164 0 0 1 18.48.12Zm8.66 14.6c-1.23 3.37.54 7.1 3.94 8.34 3.4 1.24 7.15-.49 8.37-3.86 1.22-3.37-.54-7.1-3.94-8.34-3.4-1.24-7.15.49-8.37 3.86Z" fill="#fff"/></svg>