<svg xmlns="http://www.w3.org/2000/svg" viewBox="0 0 44.12 27.744"><path fill="#fff" d="m18.487.133 17.748 6.46c.071.026.14.055.207.087.16.05.317.104.476.162 5.655 2.058 8.59 8.256 6.557 13.844-2.034 5.587-8.267 8.448-13.922 6.39l-18.43-6.708c-1.13-.412-1.719-1.652-1.312-2.77.407-1.117 1.653-1.689 2.784-1.277l10.24 3.727a10.656 10.656 0 0 1-.37-4.718L1.44 7.678C.31 7.266-.278 6.026.13 4.908.534 3.792 1.781 3.22 2.912 3.632l21.024 7.65a10.656 10.656 0 0 1 3.316-3.376L17.014 4.18c-1.13-.41-1.718-1.65-1.31-2.769C16.11.294 17.355-.278 18.486.133Zm8.657 14.605c-1.226 3.367.537 7.1 3.936 8.336 3.4 1.237 7.148-.489 8.374-3.856 1.225-3.367-.537-7.099-3.936-8.336-3.4-1.237-7.149.49-8.374 3.856Z"/></svg>