<svg xmlns="http://www.w3.org/2000/svg" viewBox="0 0 24 23.48"><path d="M20.34 0c.13 0 .24.01.34.03.26.03.22.27.16.62-1.46 8.73-2.11 18.13 3.05 22.62.05.05.13.16.1.19-.02.04-.18.02-.24.01-2.54-.16-12.78-4.23-12.34-21.7 0-.28.05-.41.46-.53C13.26.85 17.64.06 19.86 0h.49ZM3.98 8.8c.24-.17 2.98-1.52 5.5-2.42.5-.16.5.36.52.5 2.35 13.41 8.1 15.1 9.72 16.42.22.15-.06.2-.34.18C7.75 23.52 4.25 12.82 3.61 9.32c-.06-.32.12-.35.36-.52ZM.26 17.3c.6-.73 2.33-2.19 3.05-2.67.22-.15.38.19.57.65.78 1.67 1.94 3.43 3.08 4.59 2.28 2.31 4.78 3.2 4.91 3.3.19.16.19.29-.18.3-7.9.29-11.13-3.45-11.67-5.61-.06-.24 0-.26.23-.55Z" fill="#fff"/></svg>