<svg xmlns="http://www.w3.org/2000/svg" viewBox="0 0 24.003 23.484"><path fill="#fff" d="M20.34 0c.128.004.243.012.344.025.262.033.223.268.163.619-1.463 8.727-2.11 18.128 3.047 22.623.054.05.129.155.104.194-.025.038-.177.018-.24.014-2.537-.159-12.777-4.229-12.342-21.697.007-.28.045-.408.46-.53C13.26.845 17.642.06 19.856 0h.486-.001ZM3.979 8.796c.242-.17 2.98-1.52 5.5-2.42.504-.161.5.36.525.498 2.353 13.408 8.105 15.095 9.723 16.421.217.145-.061.198-.337.185-11.63.037-15.131-10.658-15.775-14.165-.06-.323.122-.348.364-.519Zm-3.72 8.506c.595-.73 2.33-2.193 3.052-2.672.219-.145.377.19.57.646.78 1.673 1.943 3.432 3.085 4.59 2.284 2.314 4.78 3.198 4.909 3.3.194.16.193.286-.18.3C3.79 23.76.56 20.022.022 17.856c-.058-.235-.007-.26.234-.554h.002Z"/></svg>